<svg width="480" height="600" viewBox="0 0 480 600" xmlns="http://www.w3.org/2000/svg" role="img" aria-labelledby="title desc">
  <title id="title">Nick Roth brutalist portrait</title>
  <desc id="desc">Abstract brutalist portrait with bold geometric shapes and contrasting colors</desc>
  <defs>
    <linearGradient id="bg-gradient" x1="0%" y1="0%" x2="100%" y2="100%">
      <stop offset="0%" stop-color="#ff4f5a" />
      <stop offset="55%" stop-color="#ff7a85" />
      <stop offset="100%" stop-color="#0ea5e9" />
    </linearGradient>
    <pattern id="grid" x="0" y="0" width="24" height="24" patternUnits="userSpaceOnUse">
      <rect width="24" height="24" fill="none" stroke="#0b1324" stroke-opacity="0.08" stroke-width="1" />
    </pattern>
  </defs>
  <rect width="480" height="600" rx="48" ry="48" fill="url(#bg-gradient)" />
  <rect x="32" y="32" width="416" height="536" rx="36" fill="rgba(253,249,243,0.78)" />
  <rect x="48" y="48" width="384" height="504" rx="28" fill="url(#grid)" />
  <circle cx="240" cy="208" r="112" fill="#111827" opacity="0.85" />
  <path d="M240 124c-48 0-86 38-86 86s38 86 86 86 86-38 86-86-38-86-86-86z" fill="#fdf9f3" />
  <path d="M136 460c0-64 46-116 104-116s104 52 104 116" fill="#111827" opacity="0.9" />
  <rect x="176" y="300" width="128" height="18" fill="#ff4f5a" rx="9" />
  <rect x="156" y="336" width="168" height="18" fill="#0ea5e9" rx="9" />
  <circle cx="120" cy="136" r="28" fill="#ff4f5a" />
  <circle cx="360" cy="120" r="18" fill="#0ea5e9" />
  <rect x="352" y="432" width="64" height="64" fill="#ff4f5a" opacity="0.55" />
  <rect x="64" y="492" width="92" height="44" fill="#0ea5e9" opacity="0.4" />
</svg>
